<svg aria-hidden="true" style="position: absolute; width: 0; height: 0; overflow: hidden;" version="1.1" xmlns="http://www.w3.org/2000/svg" xmlns:xlink="http://www.w3.org/1999/xlink">
<defs>

<symbol id="icon-close" viewBox="0 0 32 32">
<path d="M16 16.944l-6.995 6.995c-0.117 0.119-0.279 0.194-0.458 0.2l-0.001 0c-0.008 0-0.018 0.001-0.028 0.001-0.181 0-0.344-0.077-0.457-0.2l-0-0c-0.129-0.118-0.21-0.285-0.213-0.471v-0.001c0-0.173 0.071-0.329 0.213-0.472l6.995-6.995-6.995-6.995c-0.119-0.117-0.194-0.279-0.2-0.458l-0-0.001c-0-0.008-0.001-0.018-0.001-0.028 0-0.181 0.077-0.344 0.2-0.457l0-0c0.118-0.129 0.285-0.21 0.471-0.213h0.001c0.173 0 0.329 0.071 0.472 0.213l6.995 6.995 6.995-6.995c0.118-0.119 0.28-0.195 0.459-0.2l0.001-0c0.008-0 0.017-0.001 0.027-0.001 0.181 0 0.343 0.077 0.457 0.2l0 0c0.141 0.143 0.213 0.3 0.213 0.472 0 0.173-0.072 0.329-0.213 0.472l-6.995 6.995 6.995 6.995c0.119 0.118 0.195 0.28 0.2 0.459l0 0.001c0 0.008 0.001 0.017 0.001 0.027 0 0.181-0.077 0.343-0.2 0.457l-0 0c-0.117 0.129-0.285 0.21-0.471 0.213h-0.001c-0.187-0.003-0.354-0.085-0.472-0.213l-0-0-6.995-6.995z"></path>
</symbol>

</defs>
</svg>
